<svg version="1.1"
    baseProfile="full"
    xmlns="http://www.w3.org/2000/svg" width="155px" height="70px" viewBox="0 0 100 70">
    <circle fill="#000" cx="0" cy="35" r="5" />
    <circle fill="#000" cx="10" cy="35" r="5" />
    <circle fill="#000" cx="20" cy="35" r="5" />
    <circle fill="#000" cx="30" cy="35" r="5" />
    <circle fill="#000" cx="40" cy="35" r="5" />
    <circle fill="#000" cx="50" cy="35" r="5" />
    <circle fill="#000" cx="60" cy="35" r="5" />
    <circle fill="#000" cx="70" cy="35" r="5" />
    <circle fill="#000" cx="80" cy="35" r="5" />
    <circle fill="#000" cx="90" cy="35" r="5" />
    <circle fill="#000" cx="100" cy="35" r="5" />
    <circle fill="#000" cx="110" cy="35" r="5" />
    <circle fill="#000" cx="120" cy="35" r="5" />
    <path stroke-width="0.5" d="M 0 30 Q 50 6.923076923076923 100 30" fill="none" stroke="#000" />
    <path stroke-width="0.5" d="M 100 40 Q 50 63.07692307692308 0 40" fill="none" stroke="#000" />
    <path stroke-width="0.5" d="M 10 30 Q 60 6.923076923076923 110 30" fill="none" stroke="#000" />
    <path stroke-width="0.5" d="M 110 40 Q 60 63.07692307692308 10 40" fill="none" stroke="#000" />
    <path stroke-width="0.5" d="M 20 30 Q 70 6.923076923076923 120 30" fill="none" stroke="#000" />
    <path stroke-width="0.5" d="M 120 40 Q 70 63.07692307692308 20 40" fill="none" stroke="#000" />
    <path stroke-width="0.5" d="M 10 30 Q 45 13.846153846153847 80 30" fill="none" stroke="#000" />
    <path stroke-width="0.5" d="M 80 40 Q 45 56.15384615384615 10 40" fill="none" stroke="#000" />
    <path stroke-width="0.5" d="M 40 30 Q 75 13.846153846153847 110 30" fill="none" stroke="#000" />
    <path stroke-width="0.5" d="M 110 40 Q 75 56.15384615384615 40 40" fill="none" stroke="#000" />
    <path stroke-width="0.5" d="M 50 30 Q 85 13.846153846153847 120 30" fill="none" stroke="#000" />
    <path stroke-width="0.5" d="M 120 40 Q 85 56.15384615384615 50 40" fill="none" stroke="#000" />
    <path stroke-width="0.5" d="M 20 30 Q 45 18.46153846153846 70 30" fill="none" stroke="#000" />
    <path stroke-width="0.5" d="M 70 40 Q 45 51.53846153846154 20 40" fill="none" stroke="#000" />
    <path stroke-width="0.5" d="M 30 30 Q 55 18.46153846153846 80 30" fill="none" stroke="#000" />
    <path stroke-width="0.5" d="M 80 40 Q 55 51.53846153846154 30 40" fill="none" stroke="#000" />
    <path stroke-width="0.5" d="M 40 30 Q 65 18.46153846153846 90 30" fill="none" stroke="#000" />
    <path stroke-width="0.5" d="M 90 40 Q 65 51.53846153846154 40 40" fill="none" stroke="#000" />
    <path stroke-width="0.5" d="M 30 30 Q 45 23.076923076923077 60 30" fill="none" stroke="#000" />
    <path stroke-width="0.5" d="M 60 40 Q 45 46.92307692307692 30 40" fill="none" stroke="#000" />
    <path stroke-width="0.5" d="M 40 30 Q 55 23.076923076923077 70 30" fill="none" stroke="#000" />
    <path stroke-width="0.5" d="M 70 40 Q 55 46.92307692307692 40 40" fill="none" stroke="#000" />
    <path stroke-width="0.5" d="M 50 30 Q 60 25.384615384615383 70 30" fill="none" stroke="#000" />
    <path stroke-width="0.5" d="M 70 40 Q 60 44.61538461538461 50 40" fill="none" stroke="#000" />
    <path stroke-width="0.5" d="M 70 30 Q 80 25.384615384615383 90 30" fill="none" stroke="#000" />
    <path stroke-width="0.5" d="M 90 40 Q 80 44.61538461538461 70 40" fill="none" stroke="#000" />
    <path stroke-width="0.5" d="M 100 30 Q 110 25.384615384615383 120 30" fill="none" stroke="#000" />
    <path stroke-width="0.5" d="M 120 40 Q 110 44.61538461538461 100 40" fill="none" stroke="#000" />
    <path stroke-width="0.5" d="M 0 30 Q 5 27.692307692307693 10 30" fill="none" stroke="#000" />
    <path stroke-width="0.5" d="M 10 40 Q 5 42.30769230769231 0 40" fill="none" stroke="#000" />
    <path stroke-width="0.5" d="M 20 30 Q 25 27.692307692307693 30 30" fill="none" stroke="#000" />
    <path stroke-width="0.5" d="M 30 40 Q 25 42.30769230769231 20 40" fill="none" stroke="#000" />
    <path stroke-width="0.5" d="M 50 30 Q 55 27.692307692307693 60 30" fill="none" stroke="#000" />
    <path stroke-width="0.5" d="M 60 40 Q 55 42.30769230769231 50 40" fill="none" stroke="#000" />
    <path stroke-width="0.5" d="M 80 30 Q 85 27.692307692307693 90 30" fill="none" stroke="#000" />
    <path stroke-width="0.5" d="M 90 40 Q 85 42.30769230769231 80 40" fill="none" stroke="#000" />
    <path stroke-width="0.5" d="M 10 30 Q 15 27.692307692307693 20 30" fill="none" stroke="#000" />
    <path stroke-width="0.5" d="M 20 40 Q 15 42.30769230769231 10 40" fill="none" stroke="#000" />
</svg>