<svg version="1.1"
    baseProfile="full"
    xmlns="http://www.w3.org/2000/svg" width="155px" height="70px" viewBox="0 0 100 70">
    <circle fill="#000" cx="0" cy="35" r="5" />
    <circle fill="#000" cx="10" cy="35" r="5" />
    <circle fill="#000" cx="20" cy="35" r="5" />
    <circle fill="#000" cx="30" cy="35" r="5" />
    <circle fill="#000" cx="40" cy="35" r="5" />
    <circle fill="#000" cx="50" cy="35" r="5" />
    <circle fill="#000" cx="60" cy="35" r="5" />
    <circle fill="#000" cx="70" cy="35" r="5" />
    <circle fill="#000" cx="80" cy="35" r="5" />
    <circle fill="#000" cx="90" cy="35" r="5" />
    <circle fill="#000" cx="100" cy="35" r="5" />
    <circle fill="#000" cx="110" cy="35" r="5" />
    <circle fill="#000" cx="120" cy="35" r="5" />
    <path stroke-linecap="round" stroke-width="0.5" d="M 0 30.25 Q 5 27.942307692307693 10 30.25" fill="none" stroke="#000" />
    <path stroke-linecap="round" stroke-width="0.5" d="M 10 39.75 Q 5 42.05769230769231 0 39.75" fill="none" stroke="#000" />
    <path stroke-linecap="round" stroke-width="0.5" d="M 10 30.25 Q 15 27.942307692307693 20 30.25" fill="none" stroke="#000" />
    <path stroke-linecap="round" stroke-width="0.5" d="M 20 39.75 Q 15 42.05769230769231 10 39.75" fill="none" stroke="#000" />
    <path stroke-linecap="round" stroke-width="0.5" d="M 20 30.25 Q 25 27.942307692307693 30 30.25" fill="none" stroke="#000" />
    <path stroke-linecap="round" stroke-width="0.5" d="M 30 39.75 Q 25 42.05769230769231 20 39.75" fill="none" stroke="#000" />
    <path stroke-linecap="round" stroke-width="0.5" d="M 30 30.25 Q 35 27.942307692307693 40 30.25" fill="none" stroke="#000" />
    <path stroke-linecap="round" stroke-width="0.5" d="M 40 39.75 Q 35 42.05769230769231 30 39.75" fill="none" stroke="#000" />
    <path stroke-linecap="round" stroke-width="0.5" d="M 40 30.25 Q 45 27.942307692307693 50 30.25" fill="none" stroke="#000" />
    <path stroke-linecap="round" stroke-width="0.5" d="M 50 39.75 Q 45 42.05769230769231 40 39.75" fill="none" stroke="#000" />
    <path stroke-linecap="round" stroke-width="0.5" d="M 50 30.25 Q 55 27.942307692307693 60 30.25" fill="none" stroke="#000" />
    <path stroke-linecap="round" stroke-width="0.5" d="M 60 39.75 Q 55 42.05769230769231 50 39.75" fill="none" stroke="#000" />
    <path stroke-linecap="round" stroke-width="0.5" d="M 60 30.25 Q 65 27.942307692307693 70 30.25" fill="none" stroke="#000" />
    <path stroke-linecap="round" stroke-width="0.5" d="M 70 39.75 Q 65 42.05769230769231 60 39.75" fill="none" stroke="#000" />
    <path stroke-linecap="round" stroke-width="0.5" d="M 70 30.25 Q 75 27.942307692307693 80 30.25" fill="none" stroke="#000" />
    <path stroke-linecap="round" stroke-width="0.5" d="M 80 39.75 Q 75 42.05769230769231 70 39.75" fill="none" stroke="#000" />
    <path stroke-linecap="round" stroke-width="0.5" d="M 80 30.25 Q 85 27.942307692307693 90 30.25" fill="none" stroke="#000" />
    <path stroke-linecap="round" stroke-width="0.5" d="M 90 39.75 Q 85 42.05769230769231 80 39.75" fill="none" stroke="#000" />
    <path stroke-linecap="round" stroke-width="0.5" d="M 90 30.25 Q 95 27.942307692307693 100 30.25" fill="none" stroke="#000" />
    <path stroke-linecap="round" stroke-width="0.5" d="M 100 39.75 Q 95 42.05769230769231 90 39.75" fill="none" stroke="#000" />
    <path stroke-linecap="round" stroke-width="0.5" d="M 100 30.25 Q 105 27.942307692307693 110 30.25" fill="none" stroke="#000" />
    <path stroke-linecap="round" stroke-width="0.5" d="M 110 39.75 Q 105 42.05769230769231 100 39.75" fill="none" stroke="#000" />
    <path stroke-linecap="round" stroke-width="0.5" d="M 110 30.25 Q 115 27.942307692307693 120 30.25" fill="none" stroke="#000" />
    <path stroke-linecap="round" stroke-width="0.5" d="M 120 39.75 Q 115 42.05769230769231 110 39.75" fill="none" stroke="#000" />
    <path stroke-linecap="round" stroke-width="0.5" d="M 100 30.25 Q 105 27.942307692307693 110 30.25" fill="none" stroke="#000" />
    <path stroke-linecap="round" stroke-width="0.5" d="M 110 39.75 Q 105 42.05769230769231 100 39.75" fill="none" stroke="#000" />
    <path stroke-linecap="round" stroke-width="0.5" d="M 80 30.25 Q 85 27.942307692307693 90 30.25" fill="none" stroke="#000" />
    <path stroke-linecap="round" stroke-width="0.5" d="M 90 39.75 Q 85 42.05769230769231 80 39.75" fill="none" stroke="#000" />
    <path stroke-linecap="round" stroke-width="0.5" d="M 60 30.25 Q 65 27.942307692307693 70 30.25" fill="none" stroke="#000" />
    <path stroke-linecap="round" stroke-width="0.5" d="M 70 39.75 Q 65 42.05769230769231 60 39.75" fill="none" stroke="#000" />
    <path stroke-linecap="round" stroke-width="0.5" d="M 50 30.25 Q 55 27.942307692307693 60 30.25" fill="none" stroke="#000" />
    <path stroke-linecap="round" stroke-width="0.5" d="M 60 39.75 Q 55 42.05769230769231 50 39.75" fill="none" stroke="#000" />
    <path stroke-linecap="round" stroke-width="0.5" d="M 40 30.25 Q 45 27.942307692307693 50 30.25" fill="none" stroke="#000" />
    <path stroke-linecap="round" stroke-width="0.5" d="M 50 39.75 Q 45 42.05769230769231 40 39.75" fill="none" stroke="#000" />
    <path stroke-linecap="round" stroke-width="0.5" d="M 30 30.25 Q 35 27.942307692307693 40 30.25" fill="none" stroke="#000" />
    <path stroke-linecap="round" stroke-width="0.5" d="M 40 39.75 Q 35 42.05769230769231 30 39.75" fill="none" stroke="#000" />
    <path stroke-linecap="round" stroke-width="0.5" d="M 20 30.25 Q 25 27.942307692307693 30 30.25" fill="none" stroke="#000" />
    <path stroke-linecap="round" stroke-width="0.5" d="M 30 39.75 Q 25 42.05769230769231 20 39.75" fill="none" stroke="#000" />
    <path stroke-linecap="round" stroke-width="0.5" d="M 10 30.25 Q 15 27.942307692307693 20 30.25" fill="none" stroke="#000" />
    <path stroke-linecap="round" stroke-width="0.5" d="M 20 39.75 Q 15 42.05769230769231 10 39.75" fill="none" stroke="#000" />
    <path stroke-linecap="round" stroke-width="0.5" d="M 0 30.25 Q 5 27.942307692307693 10 30.25" fill="none" stroke="#000" />
    <path stroke-linecap="round" stroke-width="0.5" d="M 10 39.75 Q 5 42.05769230769231 0 39.75" fill="none" stroke="#000" />
    <path stroke-linecap="round" stroke-width="0.5" d="M 50 30.25 Q 55 27.942307692307693 60 30.25" fill="none" stroke="#000" />
    <path stroke-linecap="round" stroke-width="0.5" d="M 60 39.75 Q 55 42.05769230769231 50 39.75" fill="none" stroke="#000" />
    <path stroke-linecap="round" stroke-width="0.5" d="M 60 30.25 Q 65 27.942307692307693 70 30.25" fill="none" stroke="#000" />
    <path stroke-linecap="round" stroke-width="0.5" d="M 70 39.75 Q 65 42.05769230769231 60 39.75" fill="none" stroke="#000" />
    <path stroke-linecap="round" stroke-width="0.5" d="M 70 30.25 Q 75 27.942307692307693 80 30.25" fill="none" stroke="#000" />
    <path stroke-linecap="round" stroke-width="0.5" d="M 80 39.75 Q 75 42.05769230769231 70 39.75" fill="none" stroke="#000" />
    <path stroke-linecap="round" stroke-width="0.5" d="M 80 30.25 Q 85 27.942307692307693 90 30.25" fill="none" stroke="#000" />
    <path stroke-linecap="round" stroke-width="0.5" d="M 90 39.75 Q 85 42.05769230769231 80 39.75" fill="none" stroke="#000" />
    <path stroke-linecap="round" stroke-width="0.5" d="M 90 30.25 Q 95 27.942307692307693 100 30.25" fill="none" stroke="#000" />
    <path stroke-linecap="round" stroke-width="0.5" d="M 100 39.75 Q 95 42.05769230769231 90 39.75" fill="none" stroke="#000" />
    <path stroke-linecap="round" stroke-width="0.5" d="M 100 30.25 Q 105 27.942307692307693 110 30.25" fill="none" stroke="#000" />
    <path stroke-linecap="round" stroke-width="0.5" d="M 110 39.75 Q 105 42.05769230769231 100 39.75" fill="none" stroke="#000" />
    <path stroke-linecap="round" stroke-width="0.5" d="M 80 30.25 Q 85 27.942307692307693 90 30.25" fill="none" stroke="#000" />
    <path stroke-linecap="round" stroke-width="0.5" d="M 90 39.75 Q 85 42.05769230769231 80 39.75" fill="none" stroke="#000" />
    <path stroke-linecap="round" stroke-width="0.5" d="M 40 30.25 Q 45 27.942307692307693 50 30.25" fill="none" stroke="#000" />
    <path stroke-linecap="round" stroke-width="0.5" d="M 50 39.75 Q 45 42.05769230769231 40 39.75" fill="none" stroke="#000" />
    <path stroke-linecap="round" stroke-width="0.5" d="M 30 30.25 Q 35 27.942307692307693 40 30.25" fill="none" stroke="#000" />
    <path stroke-linecap="round" stroke-width="0.5" d="M 40 39.75 Q 35 42.05769230769231 30 39.75" fill="none" stroke="#000" />
    <path stroke-linecap="round" stroke-width="0.5" d="M 20 30.25 Q 25 27.942307692307693 30 30.25" fill="none" stroke="#000" />
    <path stroke-linecap="round" stroke-width="0.5" d="M 30 39.75 Q 25 42.05769230769231 20 39.75" fill="none" stroke="#000" />
    <path stroke-linecap="round" stroke-width="0.5" d="M 10 30.25 Q 15 27.942307692307693 20 30.25" fill="none" stroke="#000" />
    <path stroke-linecap="round" stroke-width="0.5" d="M 20 39.75 Q 15 42.05769230769231 10 39.75" fill="none" stroke="#000" />
    <path stroke-linecap="round" stroke-width="0.5" d="M 50 30.25 Q 55 27.942307692307693 60 30.25" fill="none" stroke="#000" />
    <path stroke-linecap="round" stroke-width="0.5" d="M 60 39.75 Q 55 42.05769230769231 50 39.75" fill="none" stroke="#000" />
    <path stroke-linecap="round" stroke-width="0.5" d="M 60 30.25 Q 65 27.942307692307693 70 30.25" fill="none" stroke="#000" />
    <path stroke-linecap="round" stroke-width="0.5" d="M 70 39.75 Q 65 42.05769230769231 60 39.75" fill="none" stroke="#000" />
    <path stroke-linecap="round" stroke-width="0.5" d="M 70 30.25 Q 75 27.942307692307693 80 30.25" fill="none" stroke="#000" />
    <path stroke-linecap="round" stroke-width="0.5" d="M 80 39.75 Q 75 42.05769230769231 70 39.75" fill="none" stroke="#000" />
    <path stroke-linecap="round" stroke-width="0.5" d="M 80 30.25 Q 85 27.942307692307693 90 30.25" fill="none" stroke="#000" />
    <path stroke-linecap="round" stroke-width="0.5" d="M 90 39.75 Q 85 42.05769230769231 80 39.75" fill="none" stroke="#000" />
    <path stroke-linecap="round" stroke-width="0.5" d="M 90 30.25 Q 95 27.942307692307693 100 30.25" fill="none" stroke="#000" />
    <path stroke-linecap="round" stroke-width="0.5" d="M 100 39.75 Q 95 42.05769230769231 90 39.75" fill="none" stroke="#000" />
    <path stroke-linecap="round" stroke-width="0.5" d="M 80 30.25 Q 85 27.942307692307693 90 30.25" fill="none" stroke="#000" />
    <path stroke-linecap="round" stroke-width="0.5" d="M 90 39.75 Q 85 42.05769230769231 80 39.75" fill="none" stroke="#000" />
    <path stroke-linecap="round" stroke-width="0.5" d="M 40 30.25 Q 45 27.942307692307693 50 30.25" fill="none" stroke="#000" />
    <path stroke-linecap="round" stroke-width="0.5" d="M 50 39.75 Q 45 42.05769230769231 40 39.75" fill="none" stroke="#000" />
    <path stroke-linecap="round" stroke-width="0.5" d="M 30 30.25 Q 35 27.942307692307693 40 30.25" fill="none" stroke="#000" />
    <path stroke-linecap="round" stroke-width="0.5" d="M 40 39.75 Q 35 42.05769230769231 30 39.75" fill="none" stroke="#000" />
    <path stroke-linecap="round" stroke-width="0.5" d="M 20 30.25 Q 25 27.942307692307693 30 30.25" fill="none" stroke="#000" />
    <path stroke-linecap="round" stroke-width="0.5" d="M 30 39.75 Q 25 42.05769230769231 20 39.75" fill="none" stroke="#000" />
    <path stroke-linecap="round" stroke-width="0.5" d="M 50 30.25 Q 55 27.942307692307693 60 30.25" fill="none" stroke="#000" />
    <path stroke-linecap="round" stroke-width="0.5" d="M 60 39.75 Q 55 42.05769230769231 50 39.75" fill="none" stroke="#000" />
    <path stroke-linecap="round" stroke-width="0.5" d="M 60 30.25 Q 65 27.942307692307693 70 30.25" fill="none" stroke="#000" />
    <path stroke-linecap="round" stroke-width="0.5" d="M 70 39.75 Q 65 42.05769230769231 60 39.75" fill="none" stroke="#000" />
    <path stroke-linecap="round" stroke-width="0.5" d="M 70 30.25 Q 75 27.942307692307693 80 30.25" fill="none" stroke="#000" />
    <path stroke-linecap="round" stroke-width="0.5" d="M 80 39.75 Q 75 42.05769230769231 70 39.75" fill="none" stroke="#000" />
    <path stroke-linecap="round" stroke-width="0.5" d="M 80 30.25 Q 85 27.942307692307693 90 30.25" fill="none" stroke="#000" />
    <path stroke-linecap="round" stroke-width="0.5" d="M 90 39.75 Q 85 42.05769230769231 80 39.75" fill="none" stroke="#000" />
    <path stroke-linecap="round" stroke-width="0.5" d="M 40 30.25 Q 45 27.942307692307693 50 30.25" fill="none" stroke="#000" />
    <path stroke-linecap="round" stroke-width="0.5" d="M 50 39.75 Q 45 42.05769230769231 40 39.75" fill="none" stroke="#000" />
    <path stroke-linecap="round" stroke-width="0.5" d="M 30 30.25 Q 35 27.942307692307693 40 30.25" fill="none" stroke="#000" />
    <path stroke-linecap="round" stroke-width="0.5" d="M 40 39.75 Q 35 42.05769230769231 30 39.75" fill="none" stroke="#000" />
    <path stroke-linecap="round" stroke-width="0.5" d="M 50 30.25 Q 55 27.942307692307693 60 30.25" fill="none" stroke="#000" />
    <path stroke-linecap="round" stroke-width="0.5" d="M 60 39.75 Q 55 42.05769230769231 50 39.75" fill="none" stroke="#000" />
    <path stroke-linecap="round" stroke-width="0.5" d="M 60 30.25 Q 65 27.942307692307693 70 30.25" fill="none" stroke="#000" />
    <path stroke-linecap="round" stroke-width="0.5" d="M 70 39.75 Q 65 42.05769230769231 60 39.75" fill="none" stroke="#000" />
    <path stroke-linecap="round" stroke-width="0.5" d="M 70 30.25 Q 75 27.942307692307693 80 30.25" fill="none" stroke="#000" />
    <path stroke-linecap="round" stroke-width="0.5" d="M 80 39.75 Q 75 42.05769230769231 70 39.75" fill="none" stroke="#000" />
    <path stroke-linecap="round" stroke-width="0.5" d="M 40 30.25 Q 45 27.942307692307693 50 30.25" fill="none" stroke="#000" />
    <path stroke-linecap="round" stroke-width="0.5" d="M 50 39.75 Q 45 42.05769230769231 40 39.75" fill="none" stroke="#000" />
    <path stroke-linecap="round" stroke-width="0.5" d="M 50 30.25 Q 55 27.942307692307693 60 30.25" fill="none" stroke="#000" />
    <path stroke-linecap="round" stroke-width="0.5" d="M 60 39.75 Q 55 42.05769230769231 50 39.75" fill="none" stroke="#000" />
    <path stroke-linecap="round" stroke-width="0.5" d="M 60 30.25 Q 65 27.942307692307693 70 30.25" fill="none" stroke="#000" />
    <path stroke-linecap="round" stroke-width="0.5" d="M 70 39.75 Q 65 42.05769230769231 60 39.75" fill="none" stroke="#000" />
</svg>