<svg version="1.1"
    baseProfile="full"
    xmlns="http://www.w3.org/2000/svg" width="130px" height="50px" viewBox="0 0 130 50">
    <circle fill="#000" cx="5" cy="25" r="5" />
    <circle fill="#000" cx="15" cy="25" r="5" />
    <circle fill="#000" cx="25" cy="25" r="5" />
    <circle fill="#000" cx="35" cy="25" r="5" />
    <circle fill="#000" cx="45" cy="25" r="5" />
    <circle fill="#000" cx="55" cy="25" r="5" />
    <circle fill="#000" cx="65" cy="25" r="5" />
    <circle fill="#000" cx="75" cy="25" r="5" />
    <circle fill="#000" cx="85" cy="25" r="5" />
    <circle fill="#000" cx="95" cy="25" r="5" />
    <circle fill="#000" cx="105" cy="25" r="5" />
    <circle fill="#000" cx="115" cy="25" r="5" />
    <circle fill="#000" cx="125" cy="25" r="5" />
    <path stroke-linecap="round" stroke-width="0.25" d="M 5 20.25 Q 65 -7.442307692307693 125 20.25" fill="none" stroke="#000" />
    <path stroke-linecap="round" stroke-width="0.25" d="M 125 29.75 Q 85 48.21153846153847 45 29.75" fill="none" stroke="#000" />
    <path stroke-linecap="round" stroke-width="0.25" d="M 45 20.25 Q 70 8.711538461538462 95 20.25" fill="none" stroke="#000" />
    <path stroke-linecap="round" stroke-width="0.25" d="M 95 29.75 Q 80 36.67307692307692 65 29.75" fill="none" stroke="#000" />
    <path stroke-linecap="round" stroke-width="0.25" d="M 65 20.25 Q 40 8.711538461538462 15 20.25" fill="none" stroke="#000" />
    <path stroke-linecap="round" stroke-width="0.25" d="M 15 29.75 Q 45 43.59615384615385 75 29.75" fill="none" stroke="#000" />
    <path stroke-linecap="round" stroke-width="0.25" d="M 75 20.25 Q 50 8.711538461538462 25 20.25" fill="none" stroke="#000" />
    <path stroke-linecap="round" stroke-width="0.25" d="M 25 29.75 Q 55 43.59615384615385 85 29.75" fill="none" stroke="#000" />
    <path stroke-linecap="round" stroke-width="0.25" d="M 85 20.25 Q 45 1.7884615384615365 5 20.25" fill="none" stroke="#000" />
    <path stroke-linecap="round" stroke-width="0.25" d="M 35 29.75 Q 65 43.59615384615385 95 29.75" fill="none" stroke="#000" />
    <path stroke-linecap="round" stroke-width="0.25" d="M 95 20.25 Q 100 17.942307692307693 105 20.25" fill="none" stroke="#000" />
    <path stroke-linecap="round" stroke-width="0.25" d="M 105 29.75 Q 70 45.90384615384615 35 29.75" fill="none" stroke="#000" />
    <path stroke-linecap="round" stroke-width="0.25" d="M 55 20.25 Q 75 11.019230769230768 95 20.25" fill="none" stroke="#000" />
    <path stroke-linecap="round" stroke-width="0.25" d="M 95 29.75 Q 105 34.36538461538461 115 29.75" fill="none" stroke="#000" />
    <path stroke-linecap="round" stroke-width="0.25" d="M 115 20.25 Q 85 6.403846153846153 55 20.25" fill="none" stroke="#000" />
</svg>