<svg version="1.1"
    baseProfile="full"
    xmlns="http://www.w3.org/2000/svg" width="155px" height="70px" viewBox="0 0 100 70">
    <circle fill="#000" cx="0" cy="35" r="5" />
    <circle fill="#000" cx="10" cy="35" r="5" />
    <circle fill="#000" cx="20" cy="35" r="5" />
    <circle fill="#000" cx="30" cy="35" r="5" />
    <circle fill="#000" cx="40" cy="35" r="5" />
    <circle fill="#000" cx="50" cy="35" r="5" />
    <circle fill="#000" cx="60" cy="35" r="5" />
    <circle fill="#000" cx="70" cy="35" r="5" />
    <circle fill="#000" cx="80" cy="35" r="5" />
    <circle fill="#000" cx="90" cy="35" r="5" />
    <circle fill="#000" cx="100" cy="35" r="5" />
    <circle fill="#000" cx="110" cy="35" r="5" />
    <circle fill="#000" cx="120" cy="35" r="5" />
    <path stroke-linecap="round" stroke-width="0.5" d="M 20 30.25 Q 35 23.326923076923077 50 30.25" fill="none" stroke="#000" />
    <path stroke-linecap="round" stroke-width="0.5" d="M 50 39.75 Q 35 46.67307692307692 20 39.75" fill="none" stroke="#000" />
    <path stroke-linecap="round" stroke-width="0.5" d="M 10 30.25 Q 20 25.634615384615383 30 30.25" fill="none" stroke="#000" />
    <path stroke-linecap="round" stroke-width="0.5" d="M 30 39.75 Q 20 44.36538461538461 10 39.75" fill="none" stroke="#000" />
    <path stroke-linecap="round" stroke-width="0.5" d="M 0 30.25 Q 60 2.5576923076923066 120 30.25" fill="none" stroke="#000" />
    <path stroke-linecap="round" stroke-width="0.5" d="M 120 39.75 Q 60 67.4423076923077 0 39.75" fill="none" stroke="#000" />
    <path stroke-linecap="round" stroke-width="0.5" d="M 0 30.25 Q 5 27.942307692307693 10 30.25" fill="none" stroke="#000" />
    <path stroke-linecap="round" stroke-width="0.5" d="M 10 39.75 Q 5 42.05769230769231 0 39.75" fill="none" stroke="#000" />
    <path stroke-linecap="round" stroke-width="0.5" d="M 10 30.25 Q 25 23.326923076923077 40 30.25" fill="none" stroke="#000" />
    <path stroke-linecap="round" stroke-width="0.5" d="M 40 39.75 Q 25 46.67307692307692 10 39.75" fill="none" stroke="#000" />
    <path stroke-linecap="round" stroke-width="0.5" d="M 40 30.25 Q 65 18.71153846153846 90 30.25" fill="none" stroke="#000" />
    <path stroke-linecap="round" stroke-width="0.5" d="M 90 39.75 Q 65 51.28846153846154 40 39.75" fill="none" stroke="#000" />
    <path stroke-linecap="round" stroke-width="0.5" d="M 0 30.25 Q 55 4.865384615384617 110 30.25" fill="none" stroke="#000" />
    <path stroke-linecap="round" stroke-width="0.5" d="M 110 39.75 Q 55 65.13461538461539 0 39.75" fill="none" stroke="#000" />
    <path stroke-linecap="round" stroke-width="0.5" d="M 0 30.25 Q 5 27.942307692307693 10 30.25" fill="none" stroke="#000" />
    <path stroke-linecap="round" stroke-width="0.5" d="M 10 39.75 Q 5 42.05769230769231 0 39.75" fill="none" stroke="#000" />
    <path stroke-linecap="round" stroke-width="0.5" d="M 10 30.25 Q 20 25.634615384615383 30 30.25" fill="none" stroke="#000" />
    <path stroke-linecap="round" stroke-width="0.5" d="M 30 39.75 Q 20 44.36538461538461 10 39.75" fill="none" stroke="#000" />
    <path stroke-linecap="round" stroke-width="0.5" d="M 0 30.25 Q 50 7.173076923076923 100 30.25" fill="none" stroke="#000" />
    <path stroke-linecap="round" stroke-width="0.5" d="M 100 39.75 Q 50 62.82692307692308 0 39.75" fill="none" stroke="#000" />
    <path stroke-linecap="round" stroke-width="0.5" d="M 0 30.25 Q 10 25.634615384615383 20 30.25" fill="none" stroke="#000" />
    <path stroke-linecap="round" stroke-width="0.5" d="M 20 39.75 Q 10 44.36538461538461 0 39.75" fill="none" stroke="#000" />
    <path stroke-linecap="round" stroke-width="0.5" d="M 20 30.25 Q 35 23.326923076923077 50 30.25" fill="none" stroke="#000" />
    <path stroke-linecap="round" stroke-width="0.5" d="M 50 39.75 Q 35 46.67307692307692 20 39.75" fill="none" stroke="#000" />
    <path stroke-linecap="round" stroke-width="0.5" d="M 0 30.25 Q 45 9.48076923076923 90 30.25" fill="none" stroke="#000" />
    <path stroke-linecap="round" stroke-width="0.5" d="M 90 39.75 Q 45 60.519230769230774 0 39.75" fill="none" stroke="#000" />
    <path stroke-linecap="round" stroke-width="0.5" d="M 0 30.25 Q 10 25.634615384615383 20 30.25" fill="none" stroke="#000" />
    <path stroke-linecap="round" stroke-width="0.5" d="M 20 39.75 Q 10 44.36538461538461 0 39.75" fill="none" stroke="#000" />
    <path stroke-linecap="round" stroke-width="0.5" d="M 0 30.25 Q 40 11.788461538461537 80 30.25" fill="none" stroke="#000" />
    <path stroke-linecap="round" stroke-width="0.5" d="M 80 39.75 Q 40 58.21153846153847 0 39.75" fill="none" stroke="#000" />
    <path stroke-linecap="round" stroke-width="0.5" d="M 0 30.25 Q 5 27.942307692307693 10 30.25" fill="none" stroke="#000" />
    <path stroke-linecap="round" stroke-width="0.5" d="M 10 39.75 Q 5 42.05769230769231 0 39.75" fill="none" stroke="#000" />
    <path stroke-linecap="round" stroke-width="0.5" d="M 10 30.25 Q 25 23.326923076923077 40 30.25" fill="none" stroke="#000" />
    <path stroke-linecap="round" stroke-width="0.5" d="M 40 39.75 Q 25 46.67307692307692 10 39.75" fill="none" stroke="#000" />
    <path stroke-linecap="round" stroke-width="0.5" d="M 0 30.25 Q 35 14.096153846153847 70 30.25" fill="none" stroke="#000" />
    <path stroke-linecap="round" stroke-width="0.5" d="M 70 39.75 Q 35 55.90384615384615 0 39.75" fill="none" stroke="#000" />
    <path stroke-linecap="round" stroke-width="0.5" d="M 0 30.25 Q 5 27.942307692307693 10 30.25" fill="none" stroke="#000" />
    <path stroke-linecap="round" stroke-width="0.5" d="M 10 39.75 Q 5 42.05769230769231 0 39.75" fill="none" stroke="#000" />
    <path stroke-linecap="round" stroke-width="0.5" d="M 10 30.25 Q 20 25.634615384615383 30 30.25" fill="none" stroke="#000" />
    <path stroke-linecap="round" stroke-width="0.5" d="M 30 39.75 Q 20 44.36538461538461 10 39.75" fill="none" stroke="#000" />
    <path stroke-linecap="round" stroke-width="0.5" d="M 0 30.25 Q 30 16.403846153846153 60 30.25" fill="none" stroke="#000" />
    <path stroke-linecap="round" stroke-width="0.5" d="M 60 39.75 Q 30 53.59615384615385 0 39.75" fill="none" stroke="#000" />
    <path stroke-linecap="round" stroke-width="0.5" d="M 0 30.25 Q 5 27.942307692307693 10 30.25" fill="none" stroke="#000" />
    <path stroke-linecap="round" stroke-width="0.5" d="M 10 39.75 Q 5 42.05769230769231 0 39.75" fill="none" stroke="#000" />
    <path stroke-linecap="round" stroke-width="0.5" d="M 10 30.25 Q 20 25.634615384615383 30 30.25" fill="none" stroke="#000" />
    <path stroke-linecap="round" stroke-width="0.5" d="M 30 39.75 Q 20 44.36538461538461 10 39.75" fill="none" stroke="#000" />
    <path stroke-linecap="round" stroke-width="0.5" d="M 0 30.25 Q 25 18.71153846153846 50 30.25" fill="none" stroke="#000" />
    <path stroke-linecap="round" stroke-width="0.5" d="M 50 39.75 Q 25 51.28846153846154 0 39.75" fill="none" stroke="#000" />
    <path stroke-linecap="round" stroke-width="0.5" d="M 0 30.25 Q 10 25.634615384615383 20 30.25" fill="none" stroke="#000" />
    <path stroke-linecap="round" stroke-width="0.5" d="M 20 39.75 Q 10 44.36538461538461 0 39.75" fill="none" stroke="#000" />
    <path stroke-linecap="round" stroke-width="0.5" d="M 0 30.25 Q 20 21.019230769230766 40 30.25" fill="none" stroke="#000" />
    <path stroke-linecap="round" stroke-width="0.5" d="M 40 39.75 Q 20 48.98076923076923 0 39.75" fill="none" stroke="#000" />
    <path stroke-linecap="round" stroke-width="0.5" d="M 0 30.25 Q 5 27.942307692307693 10 30.25" fill="none" stroke="#000" />
    <path stroke-linecap="round" stroke-width="0.5" d="M 10 39.75 Q 5 42.05769230769231 0 39.75" fill="none" stroke="#000" />
    <path stroke-linecap="round" stroke-width="0.5" d="M 10 30.25 Q 20 25.634615384615383 30 30.25" fill="none" stroke="#000" />
    <path stroke-linecap="round" stroke-width="0.5" d="M 30 39.75 Q 20 44.36538461538461 10 39.75" fill="none" stroke="#000" />
    <path stroke-linecap="round" stroke-width="0.5" d="M 0 30.25 Q 15 23.326923076923077 30 30.25" fill="none" stroke="#000" />
    <path stroke-linecap="round" stroke-width="0.5" d="M 30 39.75 Q 15 46.67307692307692 0 39.75" fill="none" stroke="#000" />
    <path stroke-linecap="round" stroke-width="0.5" d="M 0 30.25 Q 10 25.634615384615383 20 30.25" fill="none" stroke="#000" />
    <path stroke-linecap="round" stroke-width="0.5" d="M 20 39.75 Q 10 44.36538461538461 0 39.75" fill="none" stroke="#000" />
    <path stroke-linecap="round" stroke-width="0.5" d="M 0 30.25 Q 10 25.634615384615383 20 30.25" fill="none" stroke="#000" />
    <path stroke-linecap="round" stroke-width="0.5" d="M 20 39.75 Q 10 44.36538461538461 0 39.75" fill="none" stroke="#000" />
    <path stroke-linecap="round" stroke-width="0.5" d="M 0 30.25 Q 5 27.942307692307693 10 30.25" fill="none" stroke="#000" />
    <path stroke-linecap="round" stroke-width="0.5" d="M 10 39.75 Q 5 42.05769230769231 0 39.75" fill="none" stroke="#000" />
    <path stroke-linecap="round" stroke-width="0.5" d="M 0 30.25 Q 5 27.942307692307693 10 30.25" fill="none" stroke="#000" />
    <path stroke-linecap="round" stroke-width="0.5" d="M 10 39.75 Q 5 42.05769230769231 0 39.75" fill="none" stroke="#000" />
</svg>