<svg version="1.1"
    baseProfile="full"
    xmlns="http://www.w3.org/2000/svg" width="130px" height="50px" viewBox="0 0 130 50">
    <circle fill="#000" cx="5" cy="25" r="5" />
    <circle fill="#000" cx="15" cy="25" r="5" />
    <circle fill="#000" cx="25" cy="25" r="5" />
    <circle fill="#000" cx="35" cy="25" r="5" />
    <circle fill="#000" cx="45" cy="25" r="5" />
    <circle fill="#000" cx="55" cy="25" r="5" />
    <circle fill="#000" cx="65" cy="25" r="5" />
    <circle fill="#000" cx="75" cy="25" r="5" />
    <circle fill="#000" cx="85" cy="25" r="5" />
    <circle fill="#000" cx="95" cy="25" r="5" />
    <circle fill="#000" cx="105" cy="25" r="5" />
    <circle fill="#000" cx="115" cy="25" r="5" />
    <circle fill="#000" cx="125" cy="25" r="5" />
    <path stroke-linecap="round" stroke-width="0.25" d="M 15 20.25 Q 10 17.942307692307693 5 20.25" fill="none" stroke="#000" />
    <path stroke-linecap="round" stroke-width="0.25" d="M 5 29.75 Q 10 32.05769230769231 15 29.75" fill="none" stroke="#000" />
    <path stroke-linecap="round" stroke-width="0.25" d="M 65 20.25 Q 35 6.403846153846153 5 20.25" fill="none" stroke="#000" />
    <path stroke-linecap="round" stroke-width="0.25" d="M 5 29.75 Q 35 43.59615384615385 65 29.75" fill="none" stroke="#000" />
    <path stroke-linecap="round" stroke-width="0.25" d="M 85 20.25 Q 45 1.7884615384615365 5 20.25" fill="none" stroke="#000" />
    <path stroke-linecap="round" stroke-width="0.25" d="M 5 29.75 Q 45 48.21153846153847 85 29.75" fill="none" stroke="#000" />
    <path stroke-linecap="round" stroke-width="0.25" d="M 25 20.25 Q 20 17.942307692307693 15 20.25" fill="none" stroke="#000" />
    <path stroke-linecap="round" stroke-width="0.25" d="M 15 29.75 Q 20 32.05769230769231 25 29.75" fill="none" stroke="#000" />
    <path stroke-linecap="round" stroke-width="0.25" d="M 65 20.25 Q 40 8.711538461538462 15 20.25" fill="none" stroke="#000" />
    <path stroke-linecap="round" stroke-width="0.25" d="M 15 29.75 Q 40 41.28846153846154 65 29.75" fill="none" stroke="#000" />
    <path stroke-linecap="round" stroke-width="0.25" d="M 75 20.25 Q 45 6.403846153846153 15 20.25" fill="none" stroke="#000" />
    <path stroke-linecap="round" stroke-width="0.25" d="M 15 29.75 Q 45 43.59615384615385 75 29.75" fill="none" stroke="#000" />
    <path stroke-linecap="round" stroke-width="0.25" d="M 85 20.25 Q 50 4.096153846153847 15 20.25" fill="none" stroke="#000" />
    <path stroke-linecap="round" stroke-width="0.25" d="M 15 29.75 Q 50 45.90384615384615 85 29.75" fill="none" stroke="#000" />
    <path stroke-linecap="round" stroke-width="0.25" d="M 35 20.25 Q 30 17.942307692307693 25 20.25" fill="none" stroke="#000" />
    <path stroke-linecap="round" stroke-width="0.25" d="M 25 29.75 Q 30 32.05769230769231 35 29.75" fill="none" stroke="#000" />
    <path stroke-linecap="round" stroke-width="0.25" d="M 65 20.25 Q 45 11.019230769230768 25 20.25" fill="none" stroke="#000" />
    <path stroke-linecap="round" stroke-width="0.25" d="M 25 29.75 Q 45 38.98076923076923 65 29.75" fill="none" stroke="#000" />
    <path stroke-linecap="round" stroke-width="0.25" d="M 75 20.25 Q 50 8.711538461538462 25 20.25" fill="none" stroke="#000" />
    <path stroke-linecap="round" stroke-width="0.25" d="M 25 29.75 Q 50 41.28846153846154 75 29.75" fill="none" stroke="#000" />
    <path stroke-linecap="round" stroke-width="0.25" d="M 85 20.25 Q 55 6.403846153846153 25 20.25" fill="none" stroke="#000" />
    <path stroke-linecap="round" stroke-width="0.25" d="M 25 29.75 Q 55 43.59615384615385 85 29.75" fill="none" stroke="#000" />
    <path stroke-linecap="round" stroke-width="0.25" d="M 45 20.25 Q 40 17.942307692307693 35 20.25" fill="none" stroke="#000" />
    <path stroke-linecap="round" stroke-width="0.25" d="M 35 29.75 Q 40 32.05769230769231 45 29.75" fill="none" stroke="#000" />
    <path stroke-linecap="round" stroke-width="0.25" d="M 75 20.25 Q 55 11.019230769230768 35 20.25" fill="none" stroke="#000" />
    <path stroke-linecap="round" stroke-width="0.25" d="M 35 29.75 Q 55 38.98076923076923 75 29.75" fill="none" stroke="#000" />
    <path stroke-linecap="round" stroke-width="0.25" d="M 85 20.25 Q 60 8.711538461538462 35 20.25" fill="none" stroke="#000" />
    <path stroke-linecap="round" stroke-width="0.25" d="M 35 29.75 Q 60 41.28846153846154 85 29.75" fill="none" stroke="#000" />
    <path stroke-linecap="round" stroke-width="0.25" d="M 95 20.25 Q 65 6.403846153846153 35 20.25" fill="none" stroke="#000" />
    <path stroke-linecap="round" stroke-width="0.25" d="M 35 29.75 Q 65 43.59615384615385 95 29.75" fill="none" stroke="#000" />
    <path stroke-linecap="round" stroke-width="0.25" d="M 105 20.25 Q 70 4.096153846153847 35 20.25" fill="none" stroke="#000" />
    <path stroke-linecap="round" stroke-width="0.25" d="M 35 29.75 Q 70 45.90384615384615 105 29.75" fill="none" stroke="#000" />
    <path stroke-linecap="round" stroke-width="0.25" d="M 55 20.25 Q 50 17.942307692307693 45 20.25" fill="none" stroke="#000" />
    <path stroke-linecap="round" stroke-width="0.25" d="M 45 29.75 Q 50 32.05769230769231 55 29.75" fill="none" stroke="#000" />
    <path stroke-linecap="round" stroke-width="0.25" d="M 85 20.25 Q 65 11.019230769230768 45 20.25" fill="none" stroke="#000" />
    <path stroke-linecap="round" stroke-width="0.25" d="M 45 29.75 Q 65 38.98076923076923 85 29.75" fill="none" stroke="#000" />
    <path stroke-linecap="round" stroke-width="0.25" d="M 95 20.25 Q 70 8.711538461538462 45 20.25" fill="none" stroke="#000" />
    <path stroke-linecap="round" stroke-width="0.25" d="M 45 29.75 Q 70 41.28846153846154 95 29.75" fill="none" stroke="#000" />
    <path stroke-linecap="round" stroke-width="0.25" d="M 105 20.25 Q 75 6.403846153846153 45 20.25" fill="none" stroke="#000" />
    <path stroke-linecap="round" stroke-width="0.25" d="M 45 29.75 Q 75 43.59615384615385 105 29.75" fill="none" stroke="#000" />
    <path stroke-linecap="round" stroke-width="0.25" d="M 115 20.25 Q 80 4.096153846153847 45 20.25" fill="none" stroke="#000" />
    <path stroke-linecap="round" stroke-width="0.25" d="M 45 29.75 Q 80 45.90384615384615 115 29.75" fill="none" stroke="#000" />
    <path stroke-linecap="round" stroke-width="0.25" d="M 125 20.25 Q 85 1.7884615384615365 45 20.25" fill="none" stroke="#000" />
    <path stroke-linecap="round" stroke-width="0.25" d="M 45 29.75 Q 85 48.21153846153847 125 29.75" fill="none" stroke="#000" />
    <path stroke-linecap="round" stroke-width="0.25" d="M 65 20.25 Q 60 17.942307692307693 55 20.25" fill="none" stroke="#000" />
    <path stroke-linecap="round" stroke-width="0.25" d="M 55 29.75 Q 60 32.05769230769231 65 29.75" fill="none" stroke="#000" />
    <path stroke-linecap="round" stroke-width="0.25" d="M 95 20.25 Q 75 11.019230769230768 55 20.25" fill="none" stroke="#000" />
    <path stroke-linecap="round" stroke-width="0.25" d="M 55 29.75 Q 75 38.98076923076923 95 29.75" fill="none" stroke="#000" />
    <path stroke-linecap="round" stroke-width="0.25" d="M 105 20.25 Q 80 8.711538461538462 55 20.25" fill="none" stroke="#000" />
    <path stroke-linecap="round" stroke-width="0.25" d="M 55 29.75 Q 80 41.28846153846154 105 29.75" fill="none" stroke="#000" />
    <path stroke-linecap="round" stroke-width="0.25" d="M 115 20.25 Q 85 6.403846153846153 55 20.25" fill="none" stroke="#000" />
    <path stroke-linecap="round" stroke-width="0.25" d="M 55 29.75 Q 85 43.59615384615385 115 29.75" fill="none" stroke="#000" />
    <path stroke-linecap="round" stroke-width="0.25" d="M 125 20.25 Q 90 4.096153846153847 55 20.25" fill="none" stroke="#000" />
    <path stroke-linecap="round" stroke-width="0.25" d="M 55 29.75 Q 90 45.90384615384615 125 29.75" fill="none" stroke="#000" />
    <path stroke-linecap="round" stroke-width="0.25" d="M 75 20.25 Q 70 17.942307692307693 65 20.25" fill="none" stroke="#000" />
    <path stroke-linecap="round" stroke-width="0.25" d="M 65 29.75 Q 70 32.05769230769231 75 29.75" fill="none" stroke="#000" />
    <path stroke-linecap="round" stroke-width="0.25" d="M 105 20.25 Q 85 11.019230769230768 65 20.25" fill="none" stroke="#000" />
    <path stroke-linecap="round" stroke-width="0.25" d="M 65 29.75 Q 85 38.98076923076923 105 29.75" fill="none" stroke="#000" />
    <path stroke-linecap="round" stroke-width="0.25" d="M 115 20.25 Q 90 8.711538461538462 65 20.25" fill="none" stroke="#000" />
    <path stroke-linecap="round" stroke-width="0.25" d="M 65 29.75 Q 90 41.28846153846154 115 29.75" fill="none" stroke="#000" />
    <path stroke-linecap="round" stroke-width="0.25" d="M 125 20.25 Q 95 6.403846153846153 65 20.25" fill="none" stroke="#000" />
    <path stroke-linecap="round" stroke-width="0.25" d="M 65 29.75 Q 95 43.59615384615385 125 29.75" fill="none" stroke="#000" />
    <path stroke-linecap="round" stroke-width="0.25" d="M 85 20.25 Q 80 17.942307692307693 75 20.25" fill="none" stroke="#000" />
    <path stroke-linecap="round" stroke-width="0.25" d="M 75 29.75 Q 80 32.05769230769231 85 29.75" fill="none" stroke="#000" />
    <path stroke-linecap="round" stroke-width="0.25" d="M 115 20.25 Q 95 11.019230769230768 75 20.25" fill="none" stroke="#000" />
    <path stroke-linecap="round" stroke-width="0.25" d="M 75 29.75 Q 95 38.98076923076923 115 29.75" fill="none" stroke="#000" />
    <path stroke-linecap="round" stroke-width="0.25" d="M 125 20.25 Q 100 8.711538461538462 75 20.25" fill="none" stroke="#000" />
    <path stroke-linecap="round" stroke-width="0.25" d="M 75 29.75 Q 100 41.28846153846154 125 29.75" fill="none" stroke="#000" />
    <path stroke-linecap="round" stroke-width="0.25" d="M 95 20.25 Q 90 17.942307692307693 85 20.25" fill="none" stroke="#000" />
    <path stroke-linecap="round" stroke-width="0.25" d="M 85 29.75 Q 90 32.05769230769231 95 29.75" fill="none" stroke="#000" />
    <path stroke-linecap="round" stroke-width="0.25" d="M 125 20.25 Q 105 11.019230769230768 85 20.25" fill="none" stroke="#000" />
    <path stroke-linecap="round" stroke-width="0.25" d="M 85 29.75 Q 105 38.98076923076923 125 29.75" fill="none" stroke="#000" />
    <path stroke-linecap="round" stroke-width="0.25" d="M 105 20.25 Q 100 17.942307692307693 95 20.25" fill="none" stroke="#000" />
    <path stroke-linecap="round" stroke-width="0.25" d="M 95 29.75 Q 100 32.05769230769231 105 29.75" fill="none" stroke="#000" />
    <path stroke-linecap="round" stroke-width="0.25" d="M 115 20.25 Q 110 17.942307692307693 105 20.25" fill="none" stroke="#000" />
    <path stroke-linecap="round" stroke-width="0.25" d="M 105 29.75 Q 110 32.05769230769231 115 29.75" fill="none" stroke="#000" />
    <path stroke-linecap="round" stroke-width="0.25" d="M 125 20.25 Q 120 17.942307692307693 115 20.25" fill="none" stroke="#000" />
    <path stroke-linecap="round" stroke-width="0.25" d="M 115 29.75 Q 120 32.05769230769231 125 29.75" fill="none" stroke="#000" />
</svg>