<svg version="1.1"
    baseProfile="full"
    xmlns="http://www.w3.org/2000/svg" width="155px" height="70px" viewBox="0 0 100 70">
    <circle fill="#000" cx="0" cy="35" r="5" />
    <circle fill="#000" cx="10" cy="35" r="5" />
    <circle fill="#000" cx="20" cy="35" r="5" />
    <circle fill="#000" cx="30" cy="35" r="5" />
    <circle fill="#000" cx="40" cy="35" r="5" />
    <circle fill="#000" cx="50" cy="35" r="5" />
    <circle fill="#000" cx="60" cy="35" r="5" />
    <circle fill="#000" cx="70" cy="35" r="5" />
    <circle fill="#000" cx="80" cy="35" r="5" />
    <circle fill="#000" cx="90" cy="35" r="5" />
    <circle fill="#000" cx="100" cy="35" r="5" />
    <circle fill="#000" cx="110" cy="35" r="5" />
    <circle fill="#000" cx="120" cy="35" r="5" />
    <path stroke-linecap="round" stroke-width="0.5" d="M 10 30.25 Q 5 27.942307692307693 0 30.25" fill="none" stroke="#000" />
    <path stroke-linecap="round" stroke-width="0.5" d="M 0 39.75 Q 5 42.05769230769231 10 39.75" fill="none" stroke="#000" />
    <path stroke-linecap="round" stroke-width="0.5" d="M 60 30.25 Q 30 16.403846153846153 0 30.25" fill="none" stroke="#000" />
    <path stroke-linecap="round" stroke-width="0.5" d="M 0 39.75 Q 30 53.59615384615385 60 39.75" fill="none" stroke="#000" />
    <path stroke-linecap="round" stroke-width="0.5" d="M 80 30.25 Q 40 11.788461538461537 0 30.25" fill="none" stroke="#000" />
    <path stroke-linecap="round" stroke-width="0.5" d="M 0 39.75 Q 40 58.21153846153847 80 39.75" fill="none" stroke="#000" />
    <path stroke-linecap="round" stroke-width="0.5" d="M 20 30.25 Q 15 27.942307692307693 10 30.25" fill="none" stroke="#000" />
    <path stroke-linecap="round" stroke-width="0.5" d="M 10 39.75 Q 15 42.05769230769231 20 39.75" fill="none" stroke="#000" />
    <path stroke-linecap="round" stroke-width="0.5" d="M 60 30.25 Q 35 18.71153846153846 10 30.25" fill="none" stroke="#000" />
    <path stroke-linecap="round" stroke-width="0.5" d="M 10 39.75 Q 35 51.28846153846154 60 39.75" fill="none" stroke="#000" />
    <path stroke-linecap="round" stroke-width="0.5" d="M 70 30.25 Q 40 16.403846153846153 10 30.25" fill="none" stroke="#000" />
    <path stroke-linecap="round" stroke-width="0.5" d="M 10 39.75 Q 40 53.59615384615385 70 39.75" fill="none" stroke="#000" />
    <path stroke-linecap="round" stroke-width="0.5" d="M 80 30.25 Q 45 14.096153846153847 10 30.25" fill="none" stroke="#000" />
    <path stroke-linecap="round" stroke-width="0.5" d="M 10 39.75 Q 45 55.90384615384615 80 39.75" fill="none" stroke="#000" />
    <path stroke-linecap="round" stroke-width="0.5" d="M 30 30.25 Q 25 27.942307692307693 20 30.25" fill="none" stroke="#000" />
    <path stroke-linecap="round" stroke-width="0.5" d="M 20 39.75 Q 25 42.05769230769231 30 39.75" fill="none" stroke="#000" />
    <path stroke-linecap="round" stroke-width="0.5" d="M 60 30.25 Q 40 21.019230769230766 20 30.25" fill="none" stroke="#000" />
    <path stroke-linecap="round" stroke-width="0.5" d="M 20 39.75 Q 40 48.98076923076923 60 39.75" fill="none" stroke="#000" />
    <path stroke-linecap="round" stroke-width="0.5" d="M 70 30.25 Q 45 18.71153846153846 20 30.25" fill="none" stroke="#000" />
    <path stroke-linecap="round" stroke-width="0.5" d="M 20 39.75 Q 45 51.28846153846154 70 39.75" fill="none" stroke="#000" />
    <path stroke-linecap="round" stroke-width="0.5" d="M 80 30.25 Q 50 16.403846153846153 20 30.25" fill="none" stroke="#000" />
    <path stroke-linecap="round" stroke-width="0.5" d="M 20 39.75 Q 50 53.59615384615385 80 39.75" fill="none" stroke="#000" />
    <path stroke-linecap="round" stroke-width="0.5" d="M 40 30.25 Q 35 27.942307692307693 30 30.25" fill="none" stroke="#000" />
    <path stroke-linecap="round" stroke-width="0.5" d="M 30 39.75 Q 35 42.05769230769231 40 39.75" fill="none" stroke="#000" />
    <path stroke-linecap="round" stroke-width="0.5" d="M 70 30.25 Q 50 21.019230769230766 30 30.25" fill="none" stroke="#000" />
    <path stroke-linecap="round" stroke-width="0.5" d="M 30 39.75 Q 50 48.98076923076923 70 39.75" fill="none" stroke="#000" />
    <path stroke-linecap="round" stroke-width="0.5" d="M 80 30.25 Q 55 18.71153846153846 30 30.25" fill="none" stroke="#000" />
    <path stroke-linecap="round" stroke-width="0.5" d="M 30 39.75 Q 55 51.28846153846154 80 39.75" fill="none" stroke="#000" />
    <path stroke-linecap="round" stroke-width="0.5" d="M 90 30.25 Q 60 16.403846153846153 30 30.25" fill="none" stroke="#000" />
    <path stroke-linecap="round" stroke-width="0.5" d="M 30 39.75 Q 60 53.59615384615385 90 39.75" fill="none" stroke="#000" />
    <path stroke-linecap="round" stroke-width="0.5" d="M 100 30.25 Q 65 14.096153846153847 30 30.25" fill="none" stroke="#000" />
    <path stroke-linecap="round" stroke-width="0.5" d="M 30 39.75 Q 65 55.90384615384615 100 39.75" fill="none" stroke="#000" />
    <path stroke-linecap="round" stroke-width="0.5" d="M 50 30.25 Q 45 27.942307692307693 40 30.25" fill="none" stroke="#000" />
    <path stroke-linecap="round" stroke-width="0.5" d="M 40 39.75 Q 45 42.05769230769231 50 39.75" fill="none" stroke="#000" />
    <path stroke-linecap="round" stroke-width="0.5" d="M 80 30.25 Q 60 21.019230769230766 40 30.25" fill="none" stroke="#000" />
    <path stroke-linecap="round" stroke-width="0.5" d="M 40 39.75 Q 60 48.98076923076923 80 39.75" fill="none" stroke="#000" />
    <path stroke-linecap="round" stroke-width="0.5" d="M 90 30.25 Q 65 18.71153846153846 40 30.25" fill="none" stroke="#000" />
    <path stroke-linecap="round" stroke-width="0.5" d="M 40 39.75 Q 65 51.28846153846154 90 39.75" fill="none" stroke="#000" />
    <path stroke-linecap="round" stroke-width="0.5" d="M 100 30.25 Q 70 16.403846153846153 40 30.25" fill="none" stroke="#000" />
    <path stroke-linecap="round" stroke-width="0.5" d="M 40 39.75 Q 70 53.59615384615385 100 39.75" fill="none" stroke="#000" />
    <path stroke-linecap="round" stroke-width="0.5" d="M 110 30.25 Q 75 14.096153846153847 40 30.25" fill="none" stroke="#000" />
    <path stroke-linecap="round" stroke-width="0.5" d="M 40 39.75 Q 75 55.90384615384615 110 39.75" fill="none" stroke="#000" />
    <path stroke-linecap="round" stroke-width="0.5" d="M 120 30.25 Q 80 11.788461538461537 40 30.25" fill="none" stroke="#000" />
    <path stroke-linecap="round" stroke-width="0.5" d="M 40 39.75 Q 80 58.21153846153847 120 39.75" fill="none" stroke="#000" />
    <path stroke-linecap="round" stroke-width="0.5" d="M 60 30.25 Q 55 27.942307692307693 50 30.25" fill="none" stroke="#000" />
    <path stroke-linecap="round" stroke-width="0.5" d="M 50 39.75 Q 55 42.05769230769231 60 39.75" fill="none" stroke="#000" />
    <path stroke-linecap="round" stroke-width="0.5" d="M 90 30.25 Q 70 21.019230769230766 50 30.25" fill="none" stroke="#000" />
    <path stroke-linecap="round" stroke-width="0.5" d="M 50 39.75 Q 70 48.98076923076923 90 39.75" fill="none" stroke="#000" />
    <path stroke-linecap="round" stroke-width="0.5" d="M 100 30.25 Q 75 18.71153846153846 50 30.25" fill="none" stroke="#000" />
    <path stroke-linecap="round" stroke-width="0.5" d="M 50 39.75 Q 75 51.28846153846154 100 39.75" fill="none" stroke="#000" />
    <path stroke-linecap="round" stroke-width="0.5" d="M 110 30.25 Q 80 16.403846153846153 50 30.25" fill="none" stroke="#000" />
    <path stroke-linecap="round" stroke-width="0.5" d="M 50 39.75 Q 80 53.59615384615385 110 39.75" fill="none" stroke="#000" />
    <path stroke-linecap="round" stroke-width="0.5" d="M 120 30.25 Q 85 14.096153846153847 50 30.25" fill="none" stroke="#000" />
    <path stroke-linecap="round" stroke-width="0.5" d="M 50 39.75 Q 85 55.90384615384615 120 39.75" fill="none" stroke="#000" />
    <path stroke-linecap="round" stroke-width="0.5" d="M 70 30.25 Q 65 27.942307692307693 60 30.25" fill="none" stroke="#000" />
    <path stroke-linecap="round" stroke-width="0.5" d="M 60 39.75 Q 65 42.05769230769231 70 39.75" fill="none" stroke="#000" />
    <path stroke-linecap="round" stroke-width="0.5" d="M 100 30.25 Q 80 21.019230769230766 60 30.25" fill="none" stroke="#000" />
    <path stroke-linecap="round" stroke-width="0.5" d="M 60 39.75 Q 80 48.98076923076923 100 39.75" fill="none" stroke="#000" />
    <path stroke-linecap="round" stroke-width="0.5" d="M 110 30.25 Q 85 18.71153846153846 60 30.25" fill="none" stroke="#000" />
    <path stroke-linecap="round" stroke-width="0.5" d="M 60 39.75 Q 85 51.28846153846154 110 39.75" fill="none" stroke="#000" />
    <path stroke-linecap="round" stroke-width="0.5" d="M 120 30.25 Q 90 16.403846153846153 60 30.25" fill="none" stroke="#000" />
    <path stroke-linecap="round" stroke-width="0.5" d="M 60 39.75 Q 90 53.59615384615385 120 39.75" fill="none" stroke="#000" />
    <path stroke-linecap="round" stroke-width="0.5" d="M 80 30.25 Q 75 27.942307692307693 70 30.25" fill="none" stroke="#000" />
    <path stroke-linecap="round" stroke-width="0.5" d="M 70 39.75 Q 75 42.05769230769231 80 39.75" fill="none" stroke="#000" />
    <path stroke-linecap="round" stroke-width="0.5" d="M 110 30.25 Q 90 21.019230769230766 70 30.25" fill="none" stroke="#000" />
    <path stroke-linecap="round" stroke-width="0.5" d="M 70 39.75 Q 90 48.98076923076923 110 39.75" fill="none" stroke="#000" />
    <path stroke-linecap="round" stroke-width="0.5" d="M 120 30.25 Q 95 18.71153846153846 70 30.25" fill="none" stroke="#000" />
    <path stroke-linecap="round" stroke-width="0.5" d="M 70 39.75 Q 95 51.28846153846154 120 39.75" fill="none" stroke="#000" />
    <path stroke-linecap="round" stroke-width="0.5" d="M 90 30.25 Q 85 27.942307692307693 80 30.25" fill="none" stroke="#000" />
    <path stroke-linecap="round" stroke-width="0.5" d="M 80 39.75 Q 85 42.05769230769231 90 39.75" fill="none" stroke="#000" />
    <path stroke-linecap="round" stroke-width="0.5" d="M 120 30.25 Q 100 21.019230769230766 80 30.25" fill="none" stroke="#000" />
    <path stroke-linecap="round" stroke-width="0.5" d="M 80 39.75 Q 100 48.98076923076923 120 39.75" fill="none" stroke="#000" />
    <path stroke-linecap="round" stroke-width="0.5" d="M 100 30.25 Q 95 27.942307692307693 90 30.25" fill="none" stroke="#000" />
    <path stroke-linecap="round" stroke-width="0.5" d="M 90 39.75 Q 95 42.05769230769231 100 39.75" fill="none" stroke="#000" />
    <path stroke-linecap="round" stroke-width="0.5" d="M 110 30.25 Q 105 27.942307692307693 100 30.25" fill="none" stroke="#000" />
    <path stroke-linecap="round" stroke-width="0.5" d="M 100 39.75 Q 105 42.05769230769231 110 39.75" fill="none" stroke="#000" />
    <path stroke-linecap="round" stroke-width="0.5" d="M 120 30.25 Q 115 27.942307692307693 110 30.25" fill="none" stroke="#000" />
    <path stroke-linecap="round" stroke-width="0.5" d="M 110 39.75 Q 115 42.05769230769231 120 39.75" fill="none" stroke="#000" />
</svg>